<svg width="700pt" height="700pt" version="1.1" viewBox="0 0 700 700" xmlns="http://www.w3.org/2000/svg" xmlns:xlink="http://www.w3.org/1999/xlink">
 <g>
  <path d="m475.11 288.01c46.594 0 109.09 79.297 119.05 92.398h6.2734v-232.23h-6.2734c-9.9688 13.047-72.465 92.625-119.05 92.625h-210.56c-2.0156 0-43.23 1.0078-66.191 35.895-3.4961 5.3672-6.3711 11.117-8.5664 17.137-4.543 13.141-6.7617 26.977-6.5547 40.879 0 30.129 8.1758 53.145 24.246 68.434h0.003907c14.934 13.145 34.199 20.305 54.094 20.102h103.71c2.9688 0 78.398-5.6016 78.398-91.223-0.33594-7-3.0234-26.656-11.199-35.391h-34.664c8.2148 8.3125 14.203 18.555 17.414 29.793 0.058594 0.37109 0.058594 0.74609 0 1.1172 0 64.457-52.137 67.199-52.641 67.199h-79.797c-52.246 0-69.887-14.281-69.887-56.449 0-39.648 46.312-50.062 70.785-50.062h191.41z"/>
  <path d="m229.43 240.8h-87.809v47.434h41.328v-0.003906c8.4297-21.449 25.203-38.566 46.48-47.43z"/>
  <path d="m115.59 208.04c-4.6641 0-9.1367 1.8555-12.438 5.1523-3.2969 3.2969-5.1484 7.7695-5.1484 12.434v77.281-0.003906c-0.27344 4.8438 1.4609 9.5859 4.793 13.113 3.332 3.5234 7.9688 5.5234 12.82 5.5234 4.8477 0 9.4883-2 12.82-5.5234 3.332-3.5273 5.0625-8.2695 4.7891-13.113v-77.277c0-4.6758-1.8594-9.1562-5.168-12.453-3.3086-3.3008-7.7969-5.1484-12.469-5.1328z"/>
  <use x="70" y="644" xlink:href="#v"/>
  <use x="90.550781" y="644" xlink:href="#b"/>
  <use x="104.359375" y="644" xlink:href="#a"/>
  <use x="123.347656" y="644" xlink:href="#f"/>
  <use x="142.242188" y="644" xlink:href="#c"/>
  <use x="155.628906" y="644" xlink:href="#a"/>
  <use x="174.617188" y="644" xlink:href="#k"/>
  <use x="204.410156" y="644" xlink:href="#e"/>
  <use x="224.453125" y="644" xlink:href="#j"/>
  <use x="252.453125" y="644" xlink:href="#i"/>
  <use x="270.292969" y="644" xlink:href="#f"/>
  <use x="289.1875" y="644" xlink:href="#b"/>
  <use x="302.996094" y="644" xlink:href="#h"/>
  <use x="329.410156" y="644" xlink:href="#u"/>
  <use x="357.273438" y="644" xlink:href="#a"/>
  <use x="376.265625" y="644" xlink:href="#t"/>
  <use x="385.859375" y="644" xlink:href="#a"/>
  <use x="404.851562" y="644" xlink:href="#b"/>
  <use x="418.660156" y="644" xlink:href="#c"/>
  <use x="432.046875" y="644" xlink:href="#d"/>
  <use x="451.28125" y="644" xlink:href="#e"/>
  <use x="471.324219" y="644" xlink:href="#a"/>
  <use x="490.3125" y="644" xlink:href="#b"/>
  <use x="504.125" y="644" xlink:href="#a"/>
  <use x="523.113281" y="644" xlink:href="#g"/>
  <use x="543.046875" y="644" xlink:href="#h"/>
  <use x="70" y="672" xlink:href="#s"/>
  <use x="82.183594" y="672" xlink:href="#b"/>
  <use x="95.992188" y="672" xlink:href="#d"/>
  <use x="115.226562" y="672" xlink:href="#r"/>
  <use x="154.152344" y="672" xlink:href="#c"/>
  <use x="167.535156" y="672" xlink:href="#q"/>
  <use x="187.46875" y="672" xlink:href="#a"/>
  <use x="216.207031" y="672" xlink:href="#p"/>
  <use x="239.640625" y="672" xlink:href="#d"/>
  <use x="258.878906" y="672" xlink:href="#o"/>
  <use x="278.8125" y="672" xlink:href="#g"/>
  <use x="308.492188" y="672" xlink:href="#n"/>
  <use x="329.015625" y="672" xlink:href="#b"/>
  <use x="342.820312" y="672" xlink:href="#d"/>
  <use x="362.058594" y="672" xlink:href="#m"/>
  <use x="371.65625" y="672" xlink:href="#a"/>
  <use x="390.648438" y="672" xlink:href="#l"/>
  <use x="407.242188" y="672" xlink:href="#c"/>
 </g>
</svg>